<svg xmlns="http://www.w3.org/2000/svg" viewBox="0 0 290 330.5"><defs><style>.cls-1{fill:#fff;}.cls-2{fill:#293549;}.cls-3{fill:#3bab5e;}.cls-4{fill:#f7f8f9;}.cls-5{fill:#424143;opacity:0.4;}.cls-5,.cls-6{isolation:isolate;}.cls-6{fill:#221f1f;opacity:0.1;}</style></defs><g id="Layer_2" data-name="Layer 2"><g id="Pagina_inicia_Movil" data-name="Pagina inicia Movil"><g id="La_agencia" data-name="La agencia"><path class="cls-1" d="M0,88.8A13.9,13.9,0,0,1,6.3,77.9L138.7,1.5a14,14,0,0,1,12.6,0L283.6,77.9A14,14,0,0,1,290,88.8V241.7a14,14,0,0,1-6.4,10.9L151.3,329a14,14,0,0,1-12.6,0L6.3,252.6A13.9,13.9,0,0,1,0,241.7Z"/><path class="cls-2" d="M69.2,55.4A8.9,8.9,0,0,1,78,46.5H211.9a8.9,8.9,0,0,1,8.9,8.9V275.1a8.9,8.9,0,0,1-8.9,8.9H78a8.9,8.9,0,0,1-8.8-8.9Z"/><rect class="cls-3" x="78" y="77.5" width="133.9" height="167.77"/><path class="cls-4" d="M150.5,61.1h-11a.5.5,0,0,1-.5-.5.5.5,0,0,1,.5-.4h11a.4.4,0,0,1,.4.4A.5.5,0,0,1,150.5,61.1Z"/><path class="cls-4" d="M154.1,63.5H135.9a.5.5,0,0,1-.5-.5.5.5,0,0,1,.5-.4h18.2a.4.4,0,0,1,.4.4A.5.5,0,0,1,154.1,63.5Z"/><path class="cls-4" d="M150.5,65.8h-11a.5.5,0,0,1-.5-.4.5.5,0,0,1,.5-.5h11a.4.4,0,1,1,0,.8Z"/><path class="cls-4" d="M145,276a9.7,9.7,0,1,1,9.6-9.7A9.7,9.7,0,0,1,145,276Zm0-18.5a8.8,8.8,0,1,0,8.8,8.8A8.8,8.8,0,0,0,145,257.5Z"/><rect class="cls-4" x="89.2" y="86.5" width="111.6" height="31.61"/><rect class="cls-5" x="128.2" y="128.4" width="72.6" height="31.61"/><rect class="cls-5" x="89.2" y="128.2" width="31.9" height="31.89"/><rect class="cls-5" x="128.2" y="167.8" width="72.6" height="31.61"/><rect class="cls-5" x="89.2" y="167.5" width="31.9" height="31.9"/><rect class="cls-5" x="128.2" y="207.1" width="72.6" height="31.61"/><rect class="cls-5" x="89.2" y="206.8" width="31.9" height="31.9"/><path class="cls-6" d="M283.3,77.9,150.9,1.5A13.9,13.9,0,0,0,145,0V330.5a11.5,11.5,0,0,0,5.9-1.5l132.4-76.4a13.9,13.9,0,0,0,6.3-10.9V88.8A13.9,13.9,0,0,0,283.3,77.9Z"/></g></g></g></svg>