<svg xmlns="http://www.w3.org/2000/svg" viewBox="0 0 90 90"><defs><style>.cls-1{fill:#009500;}.cls-2{fill:#fff;}</style></defs><g id="Layer_2" data-name="Layer 2"><g id="Pagina_inicia_Movil" data-name="Pagina inicia Movil"><g id="fa-briefcase"><circle class="cls-1" cx="45" cy="45" r="45"/><g id="fa-angle-down"><path class="cls-2" d="M63.9,34.4V43H24.6V34.4a3.8,3.8,0,0,1,3.7-3.7h6.1V27a3.8,3.8,0,0,1,3.7-3.7H50.4A3.8,3.8,0,0,1,54.1,27v3.7h6.1A3.8,3.8,0,0,1,63.9,34.4Zm-14.7,11H63.9V56.5a3.7,3.7,0,0,1-3.7,3.6H28.3a3.7,3.7,0,0,1-3.7-3.6V45.4H39.3v3.7a1.2,1.2,0,0,0,1.3,1.2h7.3a1.2,1.2,0,0,0,1.3-1.2ZM50.4,27H38.1v3.7H50.4Z"/></g></g></g></g></svg>